<?xml version="1.0" encoding="UTF-8" standalone="no"?>
<!-- Created with Inkscape (http://www.inkscape.org/) -->

<svg
   width="69.139778mm"
   height="246.39967mm"
   viewBox="0 0 69.139778 246.39967"
   version="1.1"
   id="svg1"
   xmlns="http://www.w3.org/2000/svg"
   xmlns:svg="http://www.w3.org/2000/svg">
  <defs
     id="defs1" />
  <g
     id="layer1"
     transform="translate(-74.853546,-25.567165)">
    <path
       class="st1"
       d="m 143.63837,149.95423 c 0.0529,-1.45521 -0.26458,-16.95979 -0.0529,-20.34645 0.21167,-3.36021 -0.44979,-13.59959 -0.89958,-15.50459 -0.44979,-1.905 -1.45521,-5.05354 -1.69333,-6.29708 -0.21167,-1.24354 0,-24.950207 0,-27.304999 0,-2.354792 -0.66146,-4.153958 -1.905,-6.641042 -1.24355,-2.460625 -15.16063,-9.763125 -16.06021,-10.662708 -0.89958,-0.899583 0.10583,-1.455208 0.66146,-1.561042 0.55562,-0.105833 0.66146,-0.449791 1.11125,-1.455208 0.44979,-1.005417 2.46062,-5.503333 2.91041,-6.19125 0.4498,-0.661458 1.69334,-5.847291 1.79917,-6.852708 0.10583,-1.005417 1.11125,-3.360208 1.24354,-4.259792 0.10584,-0.899583 1.79917,-3.042708 1.905,-4.947708 0.10584,-1.905 -1.34937,-4.709584 -2.80458,-6.958542 -1.45521,-2.248958 -7.40833,-5.159375 -11.00667,-5.3975 -3.59834,-0.211667 -8.75771,4.841875 -9.89542,7.408333 -1.11125,2.592917 -1.00542,8.09625 -0.9525,8.546042 0.0529,0.449792 -0.9525,1.693334 -0.9525,3.704167 0,2.010833 1.905,3.942292 1.905,3.942292 l 0.44979,0.899583 c 0,0 0.10583,3.598333 0,4.60375 -0.10583,1.005417 -2.03729,3.360208 -3.4925,4.392083 -1.45521,1.005417 -11.456463,5.291667 -12.461883,5.953125 -1.00541,0.661458 -8.7577,4.841875 -11.00666,6.852708 -2.24896,2.010834 -5.15938,16.404167 -5.60917,17.092083 -0.44979,0.661459 -1.34937,12.805833 -1.79917,14.605003 -0.44979,1.79916 0.10584,14.94895 0,19.20875 -0.10583,4.25979 3.14855,14.28749 3.81,16.19249 0.66146,1.905 1.45521,4.94771 1.79917,6.74688 0.34396,1.79916 0.66146,8.30791 1.69333,10.90083 1.00542,2.59292 5.15938,3.59833 5.15938,3.59833 0,0 -0.79375,27.51667 -1.11125,33.36396 -0.34396,5.84729 -1.56104,15.84854 -1.905,18.65313 -0.34396,2.80458 -1.00542,31.69708 -0.79375,33.15229 0.21167,1.45521 0.21167,7.09083 0.44979,8.20209 0.21167,1.11125 0.66146,5.50331 0.34396,6.64101 -0.34396,1.11125 -4.04813,5.29167 -4.25979,5.74146 -0.21167,0.44979 -1.34938,3.04271 -0.55563,3.81 0.79375,0.79375 8.54604,2.46063 10.45104,2.14313 1.905,-0.34396 7.85813,-4.94771 8.30792,-5.50334 0.44979,-0.55562 0.10583,-2.80458 -0.21167,-4.25979 -0.34395,-1.45521 -0.55562,-3.04271 -0.55562,-3.94226 0,-0.89959 1.00542,-6.95855 1.00542,-7.85814 0,-0.89958 -0.10584,-2.14312 0.79375,-3.3602 0.899583,-1.24355 0.793753,-3.25438 1.111253,-4.84188 0.34395,-1.56104 2.59291,-36.16854 2.59291,-37.75604 0,-1.5875 2.69875,-23.495 3.36021,-25.95562 0.66146,-2.46063 2.46063,-4.84188 2.91042,-3.59834 0.44979,1.24354 0.79375,17.96521 1.11125,20.66396 0.34396,2.69875 -0.44979,6.74688 -0.66146,8.54604 -0.21167,1.79917 -3.94229,32.59667 -3.94229,33.36396 0,0.79375 -0.55563,5.74146 -0.79375,7.75229 -0.21167,2.01083 -0.44979,7.85813 -0.79375,11.45647 -0.34396,3.5983 0.66146,4.15393 1.11125,5.84726 0.44979,1.69334 1.00541,2.59292 1.56104,3.70417 0.55562,1.11125 11.2448,0.66146 12.59417,0.44979 1.34938,-0.21167 1.00542,-2.01083 0.66146,-3.81 -0.34396,-1.79917 -1.905,-2.80458 -2.91042,-5.39747 -1.00542,-2.59292 -0.21167,-8.86355 -0.21167,-9.89543 0,-1.00541 0.66146,-1.00541 1.45522,-1.34937 0.79375,-0.34396 1.00541,-0.79375 1.69333,-1.905 0.66146,-1.11125 0.55563,-4.39209 0.79375,-5.3975 0.21167,-1.00542 4.60375,-33.15229 4.94771,-35.16313 0.34396,-2.01083 1.00542,-3.3602 1.34937,-3.81 0.34396,-0.44979 0.89959,-5.74145 1.45521,-7.64645 0.55563,-1.905 3.4925,-22.14563 3.81,-23.495 0.34396,-1.34938 1.11125,-8.20209 1.56104,-8.20209 0.44979,0 4.60375,-0.10583 5.50334,-0.66146 0.89958,-0.55562 3.0427,-2.14312 3.86291,-2.91041 0.89959,-0.84667 0.0265,-5.58271 0.0529,-7.03792 z M 90.906897,131.30111 c 0,2.14312 -0.89958,10.55687 -0.89958,10.55687 0,0 -2.35479,-2.75167 -2.35479,-4.07458 0,-1.32292 -1.79917,-14.12875 -1.56104,-16.72167 0.23812,-2.59291 -0.47625,-7.3025 -0.0265,-9.31333 0.47625,-2.01083 3.04271,-9.31333 3.04271,-9.31333 0,0 1.79916,15.74271 1.79916,17.40958 0,1.69333 0,9.31333 0,11.45646 z M 136.7592,146.3559 c -1.34937,0.89958 -2.91041,1.34937 -2.80458,0.55562 0.10583,-0.76729 -1.13771,-17.38312 -1.24354,-18.57374 0,-0.0265 0,-0.0529 0,-0.0794 0,0 0,0.0265 0,0.0794 0.21167,1.03187 4.70958,11.77395 4.81541,13.07041 0.1323,1.34937 0.58209,4.04812 -0.76729,4.94771 z"
       id="path1-9"
       style="fill:#1d1d1b;stroke-width:0.264583" />
  </g>
</svg>
