{
	"asset":{
		"generator":"Khronos glTF Blender I/O v4.5.47",
		"version":"2.0"
	},
	"scene":0,
	"scenes":[
		{
			"name":"Scene",
			"nodes":[
				0
			]
		}
	],
	"nodes":[
		{
			"mesh":0,
			"name":"twig.004",
			"scale":[
				19.04224967956543,
				19.04224967956543,
				19.04224967956543
			]
		}
	],
	"materials":[
		{
			"doubleSided":true,
			"name":"twig_bark.001",
			"pbrMetallicRoughness":{
				"metallicFactor":0
			}
		},
		{
			"doubleSided":true,
			"name":"leaf.001",
			"normalTexture":{
				"index":0,
				"scale":0.3800000548362732
			},
			"pbrMetallicRoughness":{
				"baseColorTexture":{
					"index":1
				},
				"metallicFactor":0,
				"roughnessFactor":0.5
			}
		}
	],
	"meshes":[
		{
			"name":"twig.001",
			"primitives":[
				{
					"attributes":{
						"POSITION":0,
						"NORMAL":1,
						"TEXCOORD_0":2
					},
					"indices":3,
					"material":0
				},
				{
					"attributes":{
						"POSITION":4,
						"NORMAL":5,
						"TEXCOORD_0":6
					},
					"indices":7,
					"material":1
				}
			]
		}
	],
	"textures":[
		{
			"sampler":0,
			"source":0
		},
		{
			"sampler":0,
			"source":1
		}
	],
	"images":[
		{
			"mimeType":"image/png",
			"name":"TexturesCom_Branches0025_normal",
			"uri":"TexturesCom_Branches0025_normal.png"
		},
		{
			"mimeType":"image/png",
			"name":"TexturesCom_Branches0025_1_M",
			"uri":"TexturesCom_Branches0025_1_M.png"
		}
	],
	"accessors":[
		{
			"bufferView":0,
			"componentType":5126,
			"count":277,
			"max":[
				0.08579069375991821,
				0.0290103480219841,
				-0.000606238842010498
			],
			"min":[
				-0.10393235087394714,
				-0.03395126760005951,
				-0.34631800651550293
			],
			"type":"VEC3"
		},
		{
			"bufferView":1,
			"componentType":5126,
			"count":277,
			"type":"VEC3"
		},
		{
			"bufferView":2,
			"componentType":5126,
			"count":277,
			"type":"VEC2"
		},
		{
			"bufferView":3,
			"componentType":5123,
			"count":1062,
			"type":"SCALAR"
		},
		{
			"bufferView":4,
			"componentType":5126,
			"count":566,
			"max":[
				0.14908857643604279,
				0.02410198003053665,
				-0.03180895745754242
			],
			"min":[
				-0.12855181097984314,
				-0.0632561594247818,
				-0.3986647129058838
			],
			"type":"VEC3"
		},
		{
			"bufferView":5,
			"componentType":5126,
			"count":566,
			"type":"VEC3"
		},
		{
			"bufferView":6,
			"componentType":5126,
			"count":566,
			"type":"VEC2"
		},
		{
			"bufferView":7,
			"componentType":5123,
			"count":1914,
			"type":"SCALAR"
		}
	],
	"bufferViews":[
		{
			"buffer":0,
			"byteLength":3324,
			"byteOffset":0,
			"target":34962
		},
		{
			"buffer":0,
			"byteLength":3324,
			"byteOffset":3324,
			"target":34962
		},
		{
			"buffer":0,
			"byteLength":2216,
			"byteOffset":6648,
			"target":34962
		},
		{
			"buffer":0,
			"byteLength":2124,
			"byteOffset":8864,
			"target":34963
		},
		{
			"buffer":0,
			"byteLength":6792,
			"byteOffset":10988,
			"target":34962
		},
		{
			"buffer":0,
			"byteLength":6792,
			"byteOffset":17780,
			"target":34962
		},
		{
			"buffer":0,
			"byteLength":4528,
			"byteOffset":24572,
			"target":34962
		},
		{
			"buffer":0,
			"byteLength":3828,
			"byteOffset":29100,
			"target":34963
		}
	],
	"samplers":[
		{
			"magFilter":9729,
			"minFilter":9987
		}
	],
	"buffers":[
		{
			"byteLength":32928,
			"uri":"twig.004.bin"
		}
	]
}
