{
	"asset":{
		"generator":"Khronos glTF Blender I/O v4.5.47",
		"version":"2.0"
	},
	"scene":0,
	"scenes":[
		{
			"name":"Scene",
			"nodes":[
				0
			]
		}
	],
	"nodes":[
		{
			"mesh":0,
			"name":"twig.004"
		}
	],
	"materials":[
		{
			"doubleSided":true,
			"name":"twig_bark.001",
			"pbrMetallicRoughness":{
				"metallicFactor":0
			}
		},
		{
			"doubleSided":true,
			"name":"leaf.001",
			"normalTexture":{
				"index":0,
				"scale":0.3800000548362732
			},
			"pbrMetallicRoughness":{
				"baseColorTexture":{
					"index":1
				},
				"metallicFactor":0,
				"roughnessFactor":0.5
			}
		}
	],
	"meshes":[
		{
			"name":"twig.001",
			"primitives":[
				{
					"attributes":{
						"POSITION":0,
						"NORMAL":1,
						"TEXCOORD_0":2
					},
					"indices":3,
					"material":0
				},
				{
					"attributes":{
						"POSITION":4,
						"NORMAL":5,
						"TEXCOORD_0":6
					},
					"indices":7,
					"material":1
				}
			]
		}
	],
	"textures":[
		{
			"sampler":0,
			"source":0
		},
		{
			"sampler":0,
			"source":1
		}
	],
	"images":[
		{
			"mimeType":"image/png",
			"name":"TexturesCom_Branches0025_normal",
			"uri":"TexturesCom_Branches0025_normal.png"
		},
		{
			"mimeType":"image/png",
			"name":"TexturesCom_Branches0025_1_M",
			"uri":"TexturesCom_Branches0025_1_M.png"
		}
	],
	"accessors":[
		{
			"bufferView":0,
			"componentType":5126,
			"count":277,
			"max":[
				1.6336477994918823,
				0.552422285079956,
				-0.011544151231646538
			],
			"min":[
				-1.979105830192566,
				-0.646508514881134,
				-6.594674110412598
			],
			"type":"VEC3"
		},
		{
			"bufferView":1,
			"componentType":5126,
			"count":277,
			"type":"VEC3"
		},
		{
			"bufferView":2,
			"componentType":5126,
			"count":277,
			"type":"VEC2"
		},
		{
			"bufferView":3,
			"componentType":5123,
			"count":1062,
			"type":"SCALAR"
		},
		{
			"bufferView":4,
			"componentType":5126,
			"count":566,
			"max":[
				2.838981866836548,
				0.45895591378211975,
				-0.6057140827178955
			],
			"min":[
				-2.44791579246521,
				-1.2045395374298096,
				-7.59147310256958
			],
			"type":"VEC3"
		},
		{
			"bufferView":5,
			"componentType":5126,
			"count":566,
			"type":"VEC3"
		},
		{
			"bufferView":6,
			"componentType":5126,
			"count":566,
			"type":"VEC2"
		},
		{
			"bufferView":7,
			"componentType":5123,
			"count":1914,
			"type":"SCALAR"
		}
	],
	"bufferViews":[
		{
			"buffer":0,
			"byteLength":3324,
			"byteOffset":0,
			"target":34962
		},
		{
			"buffer":0,
			"byteLength":3324,
			"byteOffset":3324,
			"target":34962
		},
		{
			"buffer":0,
			"byteLength":2216,
			"byteOffset":6648,
			"target":34962
		},
		{
			"buffer":0,
			"byteLength":2124,
			"byteOffset":8864,
			"target":34963
		},
		{
			"buffer":0,
			"byteLength":6792,
			"byteOffset":10988,
			"target":34962
		},
		{
			"buffer":0,
			"byteLength":6792,
			"byteOffset":17780,
			"target":34962
		},
		{
			"buffer":0,
			"byteLength":4528,
			"byteOffset":24572,
			"target":34962
		},
		{
			"buffer":0,
			"byteLength":3828,
			"byteOffset":29100,
			"target":34963
		}
	],
	"samplers":[
		{
			"magFilter":9729,
			"minFilter":9987
		}
	],
	"buffers":[
		{
			"byteLength":32928,
			"uri":"twig.004.bin"
		}
	]
}
